<svg version="1.1" id="Layer_1" xmlns="http://www.w3.org/2000/svg" xmlns:xlink="http://www.w3.org/1999/xlink" x="0px" y="0px"
	 width="100%" viewBox="0 0 2560 692" enable-background="new 0 0 2560 692" xml:space="preserve">
<path fill="#000000" opacity="1.000000" stroke="none" 
	d="
M2437.000000,693.000000 
	C1624.666870,693.000000 812.833618,693.000000 1.000327,693.000000 
	C1.000218,462.333527 1.000218,231.667038 1.000109,1.000420 
	C854.333008,1.000280 1707.666016,1.000280 2560.999268,1.000140 
	C2560.999512,231.666275 2560.999512,462.332550 2560.999756,692.999390 
	C2519.833252,693.000000 2478.666748,693.000000 2437.000000,693.000000 
M1961.508301,385.994415 
	C1960.626953,388.904419 1959.745728,391.814423 1958.864380,394.724426 
	C1966.352051,364.050171 1961.699829,333.005646 1963.189453,302.100220 
	C1945.439209,302.100220 1928.470459,302.100220 1911.742432,302.100220 
	C1903.805420,317.351624 1895.974731,332.464264 1888.083008,347.544922 
	C1880.190186,362.627747 1874.323730,378.501038 1870.010132,394.990021 
	C1877.439331,356.185791 1873.759644,317.010040 1876.440552,278.348938 
	C1859.562012,278.348938 1843.824463,278.348938 1827.526855,278.348938 
	C1828.031128,287.793396 1828.726074,296.857300 1828.955688,305.932953 
	C1829.434082,324.842743 1829.746216,343.757812 1829.971802,362.672546 
	C1830.120850,375.166962 1830.344482,387.678711 1829.831421,400.153809 
	C1829.625000,405.171753 1831.740356,410.134003 1829.404785,415.387451 
	C1828.509521,417.401306 1830.996704,420.918854 1832.021240,423.986847 
	C1849.480103,423.986847 1867.294189,424.042999 1885.106445,423.876617 
	C1886.481812,423.863800 1888.420044,422.612885 1889.115234,421.382782 
	C1893.229736,414.102814 1897.032593,406.647400 1900.983032,399.273895 
	C1904.023926,393.598053 1907.384644,388.078369 1910.149048,382.272919 
	C1915.608154,370.808197 1920.994629,359.295441 1925.917725,347.594971 
	C1928.146362,342.298523 1929.195801,336.505920 1930.780151,330.938385 
	C1923.217529,361.826874 1928.404907,392.792389 1928.566284,423.987305 
	C1948.329224,423.987305 1966.967651,424.045563 1985.603638,423.860626 
	C1986.891724,423.847839 1988.687500,422.296021 1989.362061,420.999359 
	C2001.326660,398.003174 2013.133667,374.925018 2025.016968,351.886414 
	C2035.869629,330.845581 2046.792969,309.841125 2057.633301,288.793915 
	C2059.352783,285.455780 2060.797363,281.976166 2062.627441,278.000366 
	C2044.941284,278.000366 2028.126587,277.958038 2011.313599,278.101654 
	C2010.264160,278.110626 2008.748657,279.351746 2008.255127,280.399048 
	C1998.870972,300.310608 1989.715454,320.330139 1980.284424,340.219147 
	C1973.319092,354.908630 1965.640625,369.285828 1961.508301,385.994415 
M899.660706,413.971619 
	C901.171570,414.869080 902.606812,415.939758 904.205139,416.636749 
	C917.644531,422.497589 931.842102,426.235657 946.325745,426.748657 
	C968.006714,427.516602 989.900757,428.537628 1011.233459,422.927826 
	C1022.339294,420.007355 1033.254028,416.041351 1041.997925,408.340912 
	C1053.135010,398.532898 1057.816284,386.110992 1056.177856,370.975220 
	C1055.110840,361.118896 1051.099609,353.860748 1042.970459,348.412598 
	C1026.997925,337.707855 1008.495483,337.131012 990.390808,335.061554 
	C981.419128,334.036011 972.318665,334.056183 963.382874,332.828796 
	C958.393860,332.143524 953.463379,330.237640 948.801086,328.205780 
	C944.626892,326.386658 944.289734,323.565002 946.645203,319.762177 
	C950.073181,314.227661 955.914612,312.686981 961.454834,312.158691 
	C971.939453,311.158875 982.607849,310.439514 993.058838,311.305847 
	C1000.187378,311.896729 1007.362610,314.748901 1013.982910,317.763031 
	C1019.398376,320.228607 1019.576904,326.132599 1018.917542,331.985748 
	C1034.199341,331.985748 1048.980591,332.057892 1063.757446,331.838440 
	C1064.850342,331.822144 1066.233154,329.863586 1066.887085,328.519073 
	C1067.415649,327.432281 1066.827026,325.860107 1067.112793,324.588409 
	C1070.323975,310.299438 1064.115112,299.535706 1053.465332,291.310181 
	C1041.003784,281.685333 1025.945679,277.931824 1010.635071,276.172180 
	C999.989868,274.948730 989.160278,275.316833 978.412231,275.003632 
	C961.627930,274.514435 945.126709,276.460815 929.684570,283.189545 
	C922.258423,286.425354 914.623596,290.492218 908.912781,296.059479 
	C899.475464,305.259644 896.412537,317.575653 898.088196,330.663086 
	C899.169373,339.107330 903.152771,345.842407 910.356079,351.126038 
	C920.855896,358.827728 932.938904,361.252563 945.205505,362.866882 
	C959.623535,364.764435 974.212158,365.351532 988.645081,367.158844 
	C994.254944,367.861359 999.844849,369.877106 1005.071899,372.150085 
	C1010.032471,374.307159 1010.613586,380.415253 1006.524048,383.875610 
	C1004.481384,385.604065 1002.011963,387.201935 999.471375,387.908112 
	C981.734131,392.838287 963.730652,392.418121 945.934875,388.807037 
	C934.560608,386.499054 930.665100,379.781067 931.964539,368.421448 
	C932.010254,368.022308 931.706665,367.583252 931.599915,367.264587 
	C915.621826,367.264587 899.857056,367.264587 882.998901,367.264587 
	C882.998901,374.431732 882.885193,381.338287 883.024414,388.239746 
	C883.258728,399.858612 890.352844,407.228851 899.660706,413.971619 
M1090.500244,423.997314 
	C1098.815063,423.997314 1107.129883,423.997314 1115.668091,423.997314 
	C1120.150146,406.326111 1124.700806,388.918549 1128.866577,371.419342 
	C1129.538696,368.595947 1130.539551,367.954559 1133.066650,367.959564 
	C1157.555420,368.008057 1182.044189,367.988678 1206.680664,367.988678 
	C1206.157959,370.043060 1205.667236,371.898193 1205.214600,373.762543 
	C1201.435913,389.328766 1197.788818,404.928894 1193.780029,420.435547 
	C1193.024414,423.358459 1193.617798,424.007233 1196.251099,424.004333 
	C1210.729858,423.988373 1225.208618,423.996704 1239.729492,423.996704 
	C1251.902466,375.334930 1264.005859,326.950958 1276.187622,278.253540 
	C1260.296265,278.253540 1244.721313,278.253540 1229.208740,278.253540 
	C1224.954590,295.238251 1220.739990,312.064941 1216.571167,328.708801 
	C1190.909180,328.708801 1165.487061,328.708801 1139.454712,328.708801 
	C1143.710205,311.659729 1147.863037,295.021637 1152.072876,278.155884 
	C1136.246216,278.155884 1120.785522,278.155884 1105.340210,278.155884 
	C1104.866455,279.837738 1104.393921,281.364838 1104.006836,282.913300 
	C1098.502319,304.932800 1092.980713,326.948090 1087.521240,348.978760 
	C1081.637817,372.720459 1075.944824,396.510681 1069.835449,420.193756 
	C1068.838867,424.057068 1070.373779,424.009064 1073.003540,423.996704 
	C1078.502441,423.970886 1084.001587,423.982635 1090.500244,423.997314 
M691.563599,305.041046 
	C683.961121,296.542542 674.763794,289.956329 664.512268,285.387543 
	C652.088867,279.850800 638.864075,275.854889 625.250732,275.200043 
	C607.070618,274.325500 588.794678,274.145813 571.079712,279.979095 
	C550.541565,286.742035 533.327881,297.796967 521.897400,316.688782 
	C513.282776,330.926697 511.188354,346.511353 511.940582,362.819275 
	C512.509949,375.163666 516.918457,385.974182 524.787109,395.157837 
	C542.289368,415.585144 565.892761,424.326843 591.663879,426.676849 
	C606.779968,428.055237 622.166626,427.760559 637.386719,424.156006 
	C661.225647,418.510345 680.958801,407.296326 694.194031,386.209717 
	C698.354004,379.582031 701.363708,372.366943 702.167419,364.000122 
	C687.157532,364.000122 672.682495,363.937988 658.210510,364.117218 
	C657.042725,364.131683 655.574463,365.586517 654.791809,366.741913 
	C650.352234,373.296204 644.821594,378.347656 637.723999,382.155457 
	C626.675659,388.082855 614.905334,387.975922 602.986145,388.057098 
	C593.322632,388.122894 584.383057,385.550720 576.086670,380.942657 
	C565.794556,375.226105 558.455811,367.019073 558.072693,354.602692 
	C557.579041,338.606354 565.899841,327.538513 579.411194,320.322937 
	C593.691467,312.696716 609.107849,312.205872 624.721741,315.022736 
	C639.362366,317.664062 652.263184,323.046539 658.456055,337.827576 
	C674.044861,337.827576 689.342712,337.827576 705.101501,337.827576 
	C704.877686,336.053375 704.723145,334.489716 704.478088,332.940369 
	C702.854675,322.677551 698.409241,313.691589 691.563599,305.041046 
M870.039856,411.282074 
	C866.821533,395.124847 863.648682,378.958435 860.372375,362.812958 
	C856.966919,346.031342 853.464966,329.269287 849.998352,312.500092 
	C847.626648,301.027130 845.243164,289.556580 842.847290,277.999878 
	C825.248047,277.999878 808.101196,277.929993 790.957092,278.112366 
	C789.315186,278.129822 787.093750,279.298218 786.145386,280.641327 
	C768.330505,305.871124 750.684753,331.220215 732.967163,356.518829 
	C718.033325,377.842590 703.045166,399.128265 688.120239,420.458252 
	C687.493958,421.353333 687.264709,422.526306 686.682129,423.993988 
	C703.812866,423.993988 720.128357,424.058777 736.441345,423.886322 
	C737.949524,423.870392 739.986023,422.715820 740.844971,421.454865 
	C744.171448,416.571381 746.843689,411.225494 750.352905,406.491638 
	C751.672546,404.711395 754.585388,403.206604 756.810303,403.152405 
	C769.629272,402.840179 782.459778,403.000244 795.286377,403.000244 
	C804.412720,403.000244 813.539062,403.000244 822.527527,403.000244 
	C823.737671,410.208801 824.880249,417.014801 826.013428,423.764771 
	C841.559692,423.764771 856.651733,423.764771 872.428345,423.764771 
	C871.757080,419.626343 871.140015,415.821716 870.039856,411.282074 
M1344.500000,277.999878 
	C1330.711182,277.999878 1316.922241,277.999878 1303.299194,277.999878 
	C1302.788574,280.030365 1302.392334,281.598938 1301.999634,283.168427 
	C1296.177246,306.428192 1290.324585,329.680389 1284.542603,352.950195 
	C1278.951172,375.453461 1273.525635,397.998627 1267.772339,420.460144 
	C1267.006226,423.451447 1267.782104,423.994080 1270.276001,423.994659 
	C1284.751587,423.998016 1299.227173,423.996307 1313.699951,423.996307 
	C1317.612793,408.474335 1321.450928,393.248444 1325.294800,378.000122 
	C1348.540161,378.000122 1371.361572,378.029022 1394.182739,377.975891 
	C1398.798828,377.965149 1404.460571,379.189392 1407.707886,376.990479 
	C1410.435547,375.143463 1410.445435,369.165436 1411.488770,364.973999 
	C1413.260742,357.855042 1414.898926,350.702789 1416.772949,342.807739 
	C1388.453125,342.807739 1361.285767,342.807739 1333.983154,342.807739 
	C1336.074341,334.628662 1338.287109,327.048553 1339.859131,319.337799 
	C1340.565918,315.870605 1341.918091,314.915649 1345.300415,314.932617 
	C1370.128174,315.057251 1394.956787,314.999939 1419.785156,314.999939 
	C1426.093140,314.999939 1432.401123,314.999908 1438.604370,314.999908 
	C1441.556152,302.563904 1444.424194,290.480896 1447.386597,277.999878 
	C1412.791382,277.999878 1379.145752,277.999878 1344.500000,277.999878 
M1516.500000,423.997406 
	C1534.156616,423.993713 1551.813477,423.937225 1569.469604,424.037140 
	C1572.487061,424.054199 1573.690918,423.390259 1574.159912,420.015045 
	C1574.933228,414.449738 1576.744141,409.030731 1578.080322,403.540985 
	C1579.545654,397.520538 1580.968262,391.489685 1582.531250,384.954163 
	C1551.119385,384.954163 1520.679077,384.954163 1489.526001,384.954163 
	C1498.469727,349.132050 1507.295654,313.782104 1516.186157,278.173340 
	C1500.312866,278.173340 1484.858521,278.173340 1469.201172,278.173340 
	C1457.156250,326.415863 1445.122803,374.612061 1432.796997,423.979004 
	C1460.798340,423.979004 1488.149170,423.979004 1516.500000,423.997406 
M1603.001099,356.141205 
	C1604.327881,361.454834 1606.096680,366.707855 1606.836060,372.101990 
	C1607.385620,376.112030 1609.684937,377.289093 1612.866699,377.960205 
	C1624.679565,380.451843 1636.548096,381.038971 1648.511719,379.025940 
	C1654.734009,377.979034 1655.163452,377.307312 1652.386841,371.843018 
	C1649.445801,366.055237 1647.623169,360.121796 1646.741699,353.503601 
	C1645.084106,341.058685 1647.658325,330.055481 1654.615967,319.927826 
	C1657.964600,315.053650 1661.741821,310.473938 1665.645508,305.339386 
	C1662.514282,304.053833 1660.083374,302.800964 1657.506836,302.041687 
	C1645.826538,298.599701 1633.858398,298.444946 1621.981323,300.236572 
	C1618.465576,300.766937 1613.589722,303.070801 1612.318726,305.900940 
	C1605.318970,321.487335 1601.792236,337.954315 1603.001099,356.141205 
M1794.620728,331.097076 
	C1793.639893,325.402649 1790.985352,321.300323 1784.621338,321.019531 
	C1775.572754,320.620392 1766.521118,320.217957 1757.466675,320.062927 
	C1754.310791,320.008881 1751.142334,320.684784 1747.302734,321.100647 
	C1748.123779,324.170166 1748.536011,326.561279 1749.395142,328.779266 
	C1753.775391,340.087494 1754.316162,351.501465 1750.480225,363.030457 
	C1747.281860,372.642944 1741.565674,380.584900 1734.147095,387.424622 
	C1730.930176,390.390594 1731.288452,392.385590 1735.137329,394.570801 
	C1736.797607,395.513428 1738.622437,396.173553 1740.392822,396.913483 
	C1751.597656,401.596405 1763.382446,399.526093 1774.965088,399.970062 
	C1778.727295,400.114197 1781.109253,398.517700 1782.799805,395.568573 
	C1790.693237,381.799255 1795.159668,366.940369 1795.894897,351.116180 
	C1796.191284,344.738739 1795.316406,338.306915 1794.620728,331.097076 
M1740.524658,290.997803 
	C1749.660156,290.182556 1758.797607,289.388794 1767.928467,288.525574 
	C1769.100220,288.414795 1771.103271,288.134857 1771.221680,287.601044 
	C1771.520996,286.249634 1771.483521,284.252777 1770.663818,283.325043 
	C1767.494995,279.739288 1764.354248,275.922058 1760.492920,273.197754 
	C1752.482666,267.546173 1744.475220,261.504425 1735.600830,257.582214 
	C1728.121338,254.276566 1719.471313,253.418503 1711.244141,252.050781 
	C1697.868164,249.827209 1684.619263,250.795120 1671.672607,255.003296 
	C1669.834717,255.600616 1668.006958,256.258972 1666.239014,257.035919 
	C1661.014038,259.332092 1655.682373,261.448456 1650.693970,264.184692 
	C1649.016235,265.104980 1648.418701,268.093689 1651.250732,268.877838 
	C1656.189331,270.245392 1661.429810,270.572968 1666.311157,272.086304 
	C1674.796631,274.717041 1683.258667,277.552551 1691.445068,280.982971 
	C1699.766479,284.469910 1706.878906,289.918549 1713.218750,296.434723 
	C1714.337891,297.584991 1717.225952,297.867371 1718.984253,297.392395 
	C1725.941528,295.512756 1732.774536,293.172668 1740.524658,290.997803 
M1670.429321,405.999603 
	C1660.142334,409.150116 1649.663452,410.981842 1638.864380,411.101501 
	C1636.250610,411.130432 1633.648804,412.234039 1631.041504,412.843445 
	C1632.569092,415.238434 1633.641968,418.154480 1635.695557,419.946686 
	C1653.450195,435.440857 1673.979980,444.041199 1697.778687,443.907440 
	C1703.686523,443.874237 1709.759888,444.080017 1715.457764,442.820831 
	C1723.851929,440.965820 1732.010498,437.992889 1740.180542,435.233032 
	C1741.358521,434.835083 1742.041382,432.971252 1742.953491,431.785858 
	C1741.736572,431.188263 1740.575684,430.396667 1739.293213,430.025940 
	C1732.968140,428.197418 1726.349731,427.106354 1720.320923,424.590271 
	C1708.754883,419.763458 1697.601685,414.114258 1688.749634,404.713501 
	C1687.241089,403.111328 1685.323853,399.698456 1681.470459,401.783997 
	C1678.254395,403.524567 1674.676758,404.597260 1670.429321,405.999603 
M1706.999023,325.499542 
	C1704.654785,323.144409 1702.451050,320.617523 1699.893066,318.523285 
	C1698.941406,317.744080 1696.624634,317.277100 1695.850708,317.869629 
	C1692.446045,320.476715 1689.293701,323.436157 1686.206787,326.429626 
	C1681.183350,331.300842 1675.891968,335.984161 1671.530029,341.403839 
	C1669.878662,343.455475 1664.361084,345.502777 1668.219971,349.568939 
	C1677.025024,358.846954 1686.189575,367.787628 1695.365601,376.703033 
	C1696.120239,377.436249 1698.652710,377.568207 1699.373657,376.906219 
	C1703.705688,372.928436 1707.758667,368.645813 1711.887085,364.447632 
	C1715.958984,360.306824 1719.795166,355.902283 1724.135864,352.067291 
	C1727.809082,348.821808 1728.278687,346.809967 1724.773071,343.274841 
	C1719.039062,337.492767 1713.259399,331.756104 1706.999023,325.499542 
z"/>
<path fill="#FFFFFF" opacity="1.000000" stroke="none" 
	d="
M1961.736084,385.648529 
	C1965.640625,369.285828 1973.319092,354.908630 1980.284424,340.219147 
	C1989.715454,320.330139 1998.870972,300.310608 2008.255127,280.399048 
	C2008.748657,279.351746 2010.264160,278.110626 2011.313599,278.101654 
	C2028.126587,277.958038 2044.941284,278.000366 2062.627441,278.000366 
	C2060.797363,281.976166 2059.352783,285.455780 2057.633301,288.793915 
	C2046.792969,309.841125 2035.869629,330.845581 2025.016968,351.886414 
	C2013.133667,374.925018 2001.326660,398.003174 1989.362061,420.999359 
	C1988.687500,422.296021 1986.891724,423.847839 1985.603638,423.860626 
	C1966.967651,424.045563 1948.329224,423.987305 1928.566284,423.987305 
	C1928.404907,392.792389 1923.217529,361.826874 1930.780151,330.938385 
	C1929.195801,336.505920 1928.146362,342.298523 1925.917725,347.594971 
	C1920.994629,359.295441 1915.608154,370.808197 1910.149048,382.272919 
	C1907.384644,388.078369 1904.023926,393.598053 1900.983032,399.273895 
	C1897.032593,406.647400 1893.229736,414.102814 1889.115234,421.382782 
	C1888.420044,422.612885 1886.481812,423.863800 1885.106445,423.876617 
	C1867.294189,424.042999 1849.480103,423.986847 1832.021240,423.986847 
	C1830.996704,420.918854 1828.509521,417.401306 1829.404785,415.387451 
	C1831.740356,410.134003 1829.625000,405.171753 1829.831421,400.153809 
	C1830.344482,387.678711 1830.120850,375.166962 1829.971802,362.672546 
	C1829.746216,343.757812 1829.434082,324.842743 1828.955688,305.932953 
	C1828.726074,296.857300 1828.031128,287.793396 1827.526855,278.348938 
	C1843.824463,278.348938 1859.562012,278.348938 1876.440552,278.348938 
	C1873.759644,317.010040 1877.439331,356.185791 1870.010132,394.990021 
	C1874.323730,378.501038 1880.190186,362.627747 1888.083008,347.544922 
	C1895.974731,332.464264 1903.805420,317.351624 1911.742432,302.100220 
	C1928.470459,302.100220 1945.439209,302.100220 1963.189453,302.100220 
	C1961.699829,333.005646 1966.352051,364.050171 1958.864380,394.724426 
	C1959.745728,391.814423 1960.626953,388.904419 1961.736084,385.648529 
z"/>
<path fill="#FFFFFF" opacity="1.000000" stroke="none" 
	d="
M899.349121,413.760651 
	C890.352844,407.228851 883.258728,399.858612 883.024414,388.239746 
	C882.885193,381.338287 882.998901,374.431732 882.998901,367.264587 
	C899.857056,367.264587 915.621826,367.264587 931.599915,367.264587 
	C931.706665,367.583252 932.010254,368.022308 931.964539,368.421448 
	C930.665100,379.781067 934.560608,386.499054 945.934875,388.807037 
	C963.730652,392.418121 981.734131,392.838287 999.471375,387.908112 
	C1002.011963,387.201935 1004.481384,385.604065 1006.524048,383.875610 
	C1010.613586,380.415253 1010.032471,374.307159 1005.071899,372.150085 
	C999.844849,369.877106 994.254944,367.861359 988.645081,367.158844 
	C974.212158,365.351532 959.623535,364.764435 945.205505,362.866882 
	C932.938904,361.252563 920.855896,358.827728 910.356079,351.126038 
	C903.152771,345.842407 899.169373,339.107330 898.088196,330.663086 
	C896.412537,317.575653 899.475464,305.259644 908.912781,296.059479 
	C914.623596,290.492218 922.258423,286.425354 929.684570,283.189545 
	C945.126709,276.460815 961.627930,274.514435 978.412231,275.003632 
	C989.160278,275.316833 999.989868,274.948730 1010.635071,276.172180 
	C1025.945679,277.931824 1041.003784,281.685333 1053.465332,291.310181 
	C1064.115112,299.535706 1070.323975,310.299438 1067.112793,324.588409 
	C1066.827026,325.860107 1067.415649,327.432281 1066.887085,328.519073 
	C1066.233154,329.863586 1064.850342,331.822144 1063.757446,331.838440 
	C1048.980591,332.057892 1034.199341,331.985748 1018.917542,331.985748 
	C1019.576904,326.132599 1019.398376,320.228607 1013.982910,317.763031 
	C1007.362610,314.748901 1000.187378,311.896729 993.058838,311.305847 
	C982.607849,310.439514 971.939453,311.158875 961.454834,312.158691 
	C955.914612,312.686981 950.073181,314.227661 946.645203,319.762177 
	C944.289734,323.565002 944.626892,326.386658 948.801086,328.205780 
	C953.463379,330.237640 958.393860,332.143524 963.382874,332.828796 
	C972.318665,334.056183 981.419128,334.036011 990.390808,335.061554 
	C1008.495483,337.131012 1026.997925,337.707855 1042.970459,348.412598 
	C1051.099609,353.860748 1055.110840,361.118896 1056.177856,370.975220 
	C1057.816284,386.110992 1053.135010,398.532898 1041.997925,408.340912 
	C1033.254028,416.041351 1022.339294,420.007355 1011.233459,422.927826 
	C989.900757,428.537628 968.006714,427.516602 946.325745,426.748657 
	C931.842102,426.235657 917.644531,422.497589 904.205139,416.636749 
	C902.606812,415.939758 901.171570,414.869080 899.349121,413.760651 
z"/>
<path fill="#FFFFFF" opacity="1.000000" stroke="none" 
	d="
M1090.000488,423.988129 
	C1084.001587,423.982635 1078.502441,423.970886 1073.003540,423.996704 
	C1070.373779,424.009064 1068.838867,424.057068 1069.835449,420.193756 
	C1075.944824,396.510681 1081.637817,372.720459 1087.521240,348.978760 
	C1092.980713,326.948090 1098.502319,304.932800 1104.006836,282.913300 
	C1104.393921,281.364838 1104.866455,279.837738 1105.340210,278.155884 
	C1120.785522,278.155884 1136.246216,278.155884 1152.072876,278.155884 
	C1147.863037,295.021637 1143.710205,311.659729 1139.454712,328.708801 
	C1165.487061,328.708801 1190.909180,328.708801 1216.571167,328.708801 
	C1220.739990,312.064941 1224.954590,295.238251 1229.208740,278.253540 
	C1244.721313,278.253540 1260.296265,278.253540 1276.187622,278.253540 
	C1264.005859,326.950958 1251.902466,375.334930 1239.729492,423.996704 
	C1225.208618,423.996704 1210.729858,423.988373 1196.251099,424.004333 
	C1193.617798,424.007233 1193.024414,423.358459 1193.780029,420.435547 
	C1197.788818,404.928894 1201.435913,389.328766 1205.214600,373.762543 
	C1205.667236,371.898193 1206.157959,370.043060 1206.680664,367.988678 
	C1182.044189,367.988678 1157.555420,368.008057 1133.066650,367.959564 
	C1130.539551,367.954559 1129.538696,368.595947 1128.866577,371.419342 
	C1124.700806,388.918549 1120.150146,406.326111 1115.668091,423.997314 
	C1107.129883,423.997314 1098.815063,423.997314 1090.000488,423.988129 
z"/>
<path fill="#FFFFFF" opacity="1.000000" stroke="none" 
	d="
M691.806396,305.309326 
	C698.409241,313.691589 702.854675,322.677551 704.478088,332.940369 
	C704.723145,334.489716 704.877686,336.053375 705.101501,337.827576 
	C689.342712,337.827576 674.044861,337.827576 658.456055,337.827576 
	C652.263184,323.046539 639.362366,317.664062 624.721741,315.022736 
	C609.107849,312.205872 593.691467,312.696716 579.411194,320.322937 
	C565.899841,327.538513 557.579041,338.606354 558.072693,354.602692 
	C558.455811,367.019073 565.794556,375.226105 576.086670,380.942657 
	C584.383057,385.550720 593.322632,388.122894 602.986145,388.057098 
	C614.905334,387.975922 626.675659,388.082855 637.723999,382.155457 
	C644.821594,378.347656 650.352234,373.296204 654.791809,366.741913 
	C655.574463,365.586517 657.042725,364.131683 658.210510,364.117218 
	C672.682495,363.937988 687.157532,364.000122 702.167419,364.000122 
	C701.363708,372.366943 698.354004,379.582031 694.194031,386.209717 
	C680.958801,407.296326 661.225647,418.510345 637.386719,424.156006 
	C622.166626,427.760559 606.779968,428.055237 591.663879,426.676849 
	C565.892761,424.326843 542.289368,415.585144 524.787109,395.157837 
	C516.918457,385.974182 512.509949,375.163666 511.940582,362.819275 
	C511.188354,346.511353 513.282776,330.926697 521.897400,316.688782 
	C533.327881,297.796967 550.541565,286.742035 571.079712,279.979095 
	C588.794678,274.145813 607.070618,274.325500 625.250732,275.200043 
	C638.864075,275.854889 652.088867,279.850800 664.512268,285.387543 
	C674.763794,289.956329 683.961121,296.542542 691.806396,305.309326 
z"/>
<path fill="#FFFFFF" opacity="1.000000" stroke="none" 
	d="
M870.281372,411.649597 
	C871.140015,415.821716 871.757080,419.626343 872.428345,423.764771 
	C856.651733,423.764771 841.559692,423.764771 826.013428,423.764771 
	C824.880249,417.014801 823.737671,410.208801 822.527527,403.000244 
	C813.539062,403.000244 804.412720,403.000244 795.286377,403.000244 
	C782.459778,403.000244 769.629272,402.840179 756.810303,403.152405 
	C754.585388,403.206604 751.672546,404.711395 750.352905,406.491638 
	C746.843689,411.225494 744.171448,416.571381 740.844971,421.454865 
	C739.986023,422.715820 737.949524,423.870392 736.441345,423.886322 
	C720.128357,424.058777 703.812866,423.993988 686.682129,423.993988 
	C687.264709,422.526306 687.493958,421.353333 688.120239,420.458252 
	C703.045166,399.128265 718.033325,377.842590 732.967163,356.518829 
	C750.684753,331.220215 768.330505,305.871124 786.145386,280.641327 
	C787.093750,279.298218 789.315186,278.129822 790.957092,278.112366 
	C808.101196,277.929993 825.248047,277.999878 842.847290,277.999878 
	C845.243164,289.556580 847.626648,301.027130 849.998352,312.500092 
	C853.464966,329.269287 856.966919,346.031342 860.372375,362.812958 
	C863.648682,378.958435 866.821533,395.124847 870.281372,411.649597 
M800.968689,330.345276 
	C793.079407,342.459381 785.190063,354.573486 777.294250,366.697571 
	C790.465637,366.697571 803.198486,366.697571 816.219482,366.697571 
	C813.797058,346.759308 807.677124,327.472015 811.078003,306.682007 
	C807.527039,314.781891 804.282593,322.182648 800.968689,330.345276 
z"/>
<path fill="#FFFFFF" opacity="1.000000" stroke="none" 
	d="
M1345.000000,277.999878 
	C1379.145752,277.999878 1412.791382,277.999878 1447.386597,277.999878 
	C1444.424194,290.480896 1441.556152,302.563904 1438.604370,314.999908 
	C1432.401123,314.999908 1426.093140,314.999939 1419.785156,314.999939 
	C1394.956787,314.999939 1370.128174,315.057251 1345.300415,314.932617 
	C1341.918091,314.915649 1340.565918,315.870605 1339.859131,319.337799 
	C1338.287109,327.048553 1336.074341,334.628662 1333.983154,342.807739 
	C1361.285767,342.807739 1388.453125,342.807739 1416.772949,342.807739 
	C1414.898926,350.702789 1413.260742,357.855042 1411.488770,364.973999 
	C1410.445435,369.165436 1410.435547,375.143463 1407.707886,376.990479 
	C1404.460571,379.189392 1398.798828,377.965149 1394.182739,377.975891 
	C1371.361572,378.029022 1348.540161,378.000122 1325.294800,378.000122 
	C1321.450928,393.248444 1317.612793,408.474335 1313.699951,423.996307 
	C1299.227173,423.996307 1284.751587,423.998016 1270.276001,423.994659 
	C1267.782104,423.994080 1267.006226,423.451447 1267.772339,420.460144 
	C1273.525635,397.998627 1278.951172,375.453461 1284.542603,352.950195 
	C1290.324585,329.680389 1296.177246,306.428192 1301.999634,283.168427 
	C1302.392334,281.598938 1302.788574,280.030365 1303.299194,277.999878 
	C1316.922241,277.999878 1330.711182,277.999878 1345.000000,277.999878 
z"/>
<path fill="#FFFFFF" opacity="1.000000" stroke="none" 
	d="
M1516.000000,423.988220 
	C1488.149170,423.979004 1460.798340,423.979004 1432.796997,423.979004 
	C1445.122803,374.612061 1457.156250,326.415863 1469.201172,278.173340 
	C1484.858521,278.173340 1500.312866,278.173340 1516.186157,278.173340 
	C1507.295654,313.782104 1498.469727,349.132050 1489.526001,384.954163 
	C1520.679077,384.954163 1551.119385,384.954163 1582.531250,384.954163 
	C1580.968262,391.489685 1579.545654,397.520538 1578.080322,403.540985 
	C1576.744141,409.030731 1574.933228,414.449738 1574.159912,420.015045 
	C1573.690918,423.390259 1572.487061,424.054199 1569.469604,424.037140 
	C1551.813477,423.937225 1534.156616,423.993713 1516.000000,423.988220 
z"/>
<path fill="#FFFFFF" opacity="1.000000" stroke="none" 
	d="
M1603.000244,355.671387 
	C1601.792236,337.954315 1605.318970,321.487335 1612.318726,305.900940 
	C1613.589722,303.070801 1618.465576,300.766937 1621.981323,300.236572 
	C1633.858398,298.444946 1645.826538,298.599701 1657.506836,302.041687 
	C1660.083374,302.800964 1662.514282,304.053833 1665.645508,305.339386 
	C1661.741821,310.473938 1657.964600,315.053650 1654.615967,319.927826 
	C1647.658325,330.055481 1645.084106,341.058685 1646.741699,353.503601 
	C1647.623169,360.121796 1649.445801,366.055237 1652.386841,371.843018 
	C1655.163452,377.307312 1654.734009,377.979034 1648.511719,379.025940 
	C1636.548096,381.038971 1624.679565,380.451843 1612.866699,377.960205 
	C1609.684937,377.289093 1607.385620,376.112030 1606.836060,372.101990 
	C1606.096680,366.707855 1604.327881,361.454834 1603.000244,355.671387 
z"/>
<path fill="#FFFFFF" opacity="1.000000" stroke="none" 
	d="
M1794.797607,331.498474 
	C1795.316406,338.306915 1796.191284,344.738739 1795.894897,351.116180 
	C1795.159668,366.940369 1790.693237,381.799255 1782.799805,395.568573 
	C1781.109253,398.517700 1778.727295,400.114197 1774.965088,399.970062 
	C1763.382446,399.526093 1751.597656,401.596405 1740.392822,396.913483 
	C1738.622437,396.173553 1736.797607,395.513428 1735.137329,394.570801 
	C1731.288452,392.385590 1730.930176,390.390594 1734.147095,387.424622 
	C1741.565674,380.584900 1747.281860,372.642944 1750.480225,363.030457 
	C1754.316162,351.501465 1753.775391,340.087494 1749.395142,328.779266 
	C1748.536011,326.561279 1748.123779,324.170166 1747.302734,321.100647 
	C1751.142334,320.684784 1754.310791,320.008881 1757.466675,320.062927 
	C1766.521118,320.217957 1775.572754,320.620392 1784.621338,321.019531 
	C1790.985352,321.300323 1793.639893,325.402649 1794.797607,331.498474 
z"/>
<path fill="#FEFEFE" opacity="1.000000" stroke="none" 
	d="
M1740.089111,291.000580 
	C1732.774536,293.172668 1725.941528,295.512756 1718.984253,297.392395 
	C1717.225952,297.867371 1714.337891,297.584991 1713.218750,296.434723 
	C1706.878906,289.918549 1699.766479,284.469910 1691.445068,280.982971 
	C1683.258667,277.552551 1674.796631,274.717041 1666.311157,272.086304 
	C1661.429810,270.572968 1656.189331,270.245392 1651.250732,268.877838 
	C1648.418701,268.093689 1649.016235,265.104980 1650.693970,264.184692 
	C1655.682373,261.448456 1661.014038,259.332092 1666.239014,257.035919 
	C1668.006958,256.258972 1669.834717,255.600616 1671.672607,255.003296 
	C1684.619263,250.795120 1697.868164,249.827209 1711.244141,252.050781 
	C1719.471313,253.418503 1728.121338,254.276566 1735.600830,257.582214 
	C1744.475220,261.504425 1752.482666,267.546173 1760.492920,273.197754 
	C1764.354248,275.922058 1767.494995,279.739288 1770.663818,283.325043 
	C1771.483521,284.252777 1771.520996,286.249634 1771.221680,287.601044 
	C1771.103271,288.134857 1769.100220,288.414795 1767.928467,288.525574 
	C1758.797607,289.388794 1749.660156,290.182556 1740.089111,291.000580 
z"/>
<path fill="#FEFEFE" opacity="1.000000" stroke="none" 
	d="
M1670.844238,405.982666 
	C1674.676758,404.597260 1678.254395,403.524567 1681.470459,401.783997 
	C1685.323853,399.698456 1687.241089,403.111328 1688.749634,404.713501 
	C1697.601685,414.114258 1708.754883,419.763458 1720.320923,424.590271 
	C1726.349731,427.106354 1732.968140,428.197418 1739.293213,430.025940 
	C1740.575684,430.396667 1741.736572,431.188263 1742.953491,431.785828 
	C1742.041382,432.971252 1741.358521,434.835083 1740.180542,435.233032 
	C1732.010498,437.992889 1723.851929,440.965820 1715.457764,442.820831 
	C1709.759888,444.080017 1703.686523,443.874237 1697.778687,443.907440 
	C1673.979980,444.041199 1653.450195,435.440857 1635.695557,419.946686 
	C1633.641968,418.154480 1632.569092,415.238434 1631.041504,412.843445 
	C1633.648804,412.234039 1636.250610,411.130432 1638.864380,411.101501 
	C1649.663452,410.981842 1660.142334,409.150116 1670.844238,405.982666 
z"/>
<path fill="#FEFEFE" opacity="1.000000" stroke="none" 
	d="
M1707.249023,325.749908 
	C1713.259399,331.756104 1719.039062,337.492767 1724.773071,343.274841 
	C1728.278687,346.809967 1727.809082,348.821808 1724.135864,352.067291 
	C1719.795166,355.902283 1715.958984,360.306824 1711.887085,364.447632 
	C1707.758667,368.645813 1703.705688,372.928436 1699.373657,376.906219 
	C1698.652710,377.568207 1696.120239,377.436249 1695.365601,376.703033 
	C1686.189575,367.787628 1677.025024,358.846954 1668.219971,349.568939 
	C1664.361084,345.502777 1669.878662,343.455475 1671.530029,341.403839 
	C1675.891968,335.984161 1681.183350,331.300842 1686.206787,326.429626 
	C1689.293701,323.436157 1692.446045,320.476715 1695.850708,317.869629 
	C1696.624634,317.277100 1698.941406,317.744080 1699.893066,318.523285 
	C1702.451050,320.617523 1704.654785,323.144409 1707.249023,325.749908 
M1700.409058,356.099396 
	C1705.951294,354.541107 1709.686035,347.333923 1706.563354,343.033569 
	C1704.078613,339.611511 1700.525024,335.348267 1695.749268,337.263062 
	C1692.020996,338.757935 1688.185791,342.007172 1686.282593,345.502838 
	C1684.095459,349.520020 1687.647705,353.270782 1691.046387,355.239105 
	C1693.450073,356.631134 1696.866211,356.275177 1700.409058,356.099396 
z"/>
<path fill="#000000" opacity="1.000000" stroke="none" 
	d="
M801.003418,329.964325 
	C804.282593,322.182648 807.527039,314.781891 811.078003,306.682007 
	C807.677124,327.472015 813.797058,346.759308 816.219482,366.697571 
	C803.198486,366.697571 790.465637,366.697571 777.294250,366.697571 
	C785.190063,354.573486 793.079407,342.459381 801.003418,329.964325 
z"/>
<path fill="#000000" opacity="1.000000" stroke="none" 
	d="
M1700.119629,356.399475 
	C1696.866211,356.275177 1693.450073,356.631134 1691.046387,355.239105 
	C1687.647705,353.270782 1684.095459,349.520020 1686.282593,345.502838 
	C1688.185791,342.007172 1692.020996,338.757935 1695.749268,337.263062 
	C1700.525024,335.348267 1704.078613,339.611511 1706.563354,343.033569 
	C1709.686035,347.333923 1705.951294,354.541107 1700.119629,356.399475 
z"/>
</svg>